<svg width="1024" height="1024" viewBox="0 0 1024 1024" fill="none" xmlns="http://www.w3.org/2000/svg">
<path d="M397.059 129.894C412.042 129.894 424.783 140.826 427.062 155.634L452.769 322.692L610.301 261.426C624.265 255.996 640.102 261.565 647.593 274.54C655.084 287.515 651.989 304.016 640.304 313.394L508.482 419.186L640.304 524.978C651.989 534.356 655.084 550.857 647.593 563.832C640.102 576.807 624.265 582.376 610.301 576.946L452.77 515.678L427.062 682.738C424.783 697.547 412.042 708.478 397.059 708.478C382.076 708.478 369.335 697.547 367.056 682.738L341.346 515.678L183.819 576.946C169.855 582.377 154.017 576.807 146.525 563.832C139.034 550.857 142.129 534.356 153.814 524.978L285.635 419.186L153.814 313.394C142.129 304.016 139.034 287.516 146.525 274.54C154.017 261.565 169.855 255.995 183.819 261.426L341.348 322.692L367.056 155.634L367.169 154.943C369.732 140.486 382.31 129.894 397.059 129.894Z" fill="white"/>
</svg>
