<svg width="1024" height="1024" viewBox="0 0 1024 1024" fill="none" xmlns="http://www.w3.org/2000/svg">
<g filter="url(#filter0_d_27_15)">
<path fill-rule="evenodd" clip-rule="evenodd" d="M800.743 710.56C851.029 710.56 891.793 751.324 891.793 801.609C891.793 851.895 851.028 892.659 800.743 892.659H545.762C495.476 892.659 454.712 851.895 454.712 801.609C454.712 751.324 495.476 710.56 545.762 710.56H800.743ZM522.634 743.386V865.386H580.434C588.378 865.386 595.303 862.508 600.93 856.881C606.381 851.43 609.251 844.762 609.425 837.128L609.434 836.386V772.226C609.434 764.278 606.552 757.385 600.888 751.85C595.268 746.249 588.359 743.386 580.434 743.386H522.634ZM629.847 743.386V865.386H716.646V839.386H655.847V817.386H716.646V791.386H655.847V769.386H716.646V743.386H629.847ZM737.059 743.386V799.905C737.059 802.548 737.14 804.822 737.322 806.675C737.489 808.371 737.783 810.253 738.479 811.761L738.496 811.798L759.584 856.53C760.646 858.987 762.048 861.403 764.056 863.01L764.282 863.186C766.644 864.954 769.64 865.386 772.299 865.386H788.459C791.203 865.386 794.307 864.926 796.702 863.01C798.711 861.403 800.112 858.984 801.174 856.527L822.415 811.811L822.427 811.786L822.438 811.761C823.134 810.253 823.428 808.371 823.595 806.675C823.777 804.822 823.858 802.548 823.858 799.905V743.386H797.858V803.291L781.255 839.386H780.107L763.059 803.266V743.386H737.059ZM788.892 860.381L788.459 860.386C788.744 860.386 789.019 860.378 789.285 860.365C789.156 860.371 789.025 860.378 788.892 860.381ZM793.371 859.261C793.304 859.307 793.234 859.351 793.163 859.395C793.311 859.304 793.449 859.208 793.578 859.105L793.371 859.261ZM796.438 854.878C796.421 854.917 796.402 854.956 796.384 854.995C796.462 854.823 796.541 854.647 796.618 854.466L796.438 854.878ZM580.434 769.386L580.752 769.397C581.457 769.453 581.921 769.707 582.379 770.197L582.496 770.323L582.622 770.441L582.817 770.638C583.241 771.102 583.434 771.606 583.434 772.386V836.386C583.434 837.106 583.223 837.725 582.498 838.45L582.438 838.511L582.379 838.574C581.856 839.134 581.324 839.386 580.434 839.386H548.634V769.386H580.434Z" fill="white"/>
</g>
<defs>
<filter id="filter0_d_27_15" x="404.712" y="660.56" width="537.081" height="282.1" filterUnits="userSpaceOnUse" color-interpolation-filters="sRGB">
<feFlood flood-opacity="0" result="BackgroundImageFix"/>
<feColorMatrix in="SourceAlpha" type="matrix" values="0 0 0 0 0 0 0 0 0 0 0 0 0 0 0 0 0 0 127 0" result="hardAlpha"/>
<feOffset/>
<feGaussianBlur stdDeviation="25"/>
<feComposite in2="hardAlpha" operator="out"/>
<feColorMatrix type="matrix" values="0 0 0 0 0 0 0 0 0 0 0 0 0 0 0 0 0 0 0.75 0"/>
<feBlend mode="normal" in2="BackgroundImageFix" result="effect1_dropShadow_27_15"/>
<feBlend mode="normal" in="SourceGraphic" in2="effect1_dropShadow_27_15" result="shape"/>
</filter>
</defs>
</svg>
